<svg width="60" height="44" viewBox="0 0 60 44" fill="none" xmlns="http://www.w3.org/2000/svg">
<ellipse opacity="0.5" cx="30" cy="41.4885" rx="30" ry="2.51151" fill="#D9D9D9"/>
<path d="M13.1711 20.6574L11.2645 20.3547L11.0318 20.6574C11.0318 20.6574 10.9335 20.7497 10.9871 20.7497C11.0407 20.7497 12.8399 21.0792 12.8399 21.0792L13.1711 20.6574Z" fill="#A5A5A5"/>
<path d="M4.69531 21.7033C4.69531 21.7033 4.78035 21.7039 4.92871 21.7159C5.37392 21.752 6.3892 21.8913 7.38942 22.4278C7.38942 22.4278 9.01848 23.3056 8.61124 23.7562L7.21944 24.9681C7.21944 24.9681 6.51233 25.4634 4.69531 25.3991C4.69531 25.3991 4.4626 25.124 4.40886 24.4637C4.35513 23.8034 4.40886 22.8038 4.40886 22.8038L4.61482 21.7492L4.69531 21.7033Z" fill="#74BA91"/>
<path d="M2.8504 32.8981C2.80636 33.0538 2.64748 33.1433 2.4955 33.0981C2.34352 33.0529 2.25625 32.8901 2.30029 32.7345L3.74758 27.6263C3.79174 27.4706 3.95061 27.381 4.10248 27.4262C4.25446 27.4713 4.34173 27.6341 4.29769 27.7899L2.8504 32.8981Z" fill="#74BA91"/>
<path d="M43.7625 23.3904L42.975 23.3445C42.975 23.3445 42.2827 22.5701 42.5274 21.3637L42.5812 21.2994H42.7087L42.7557 21.3441V21.4129L42.7154 21.4541L42.6986 21.4851L42.7019 21.6193C42.7019 21.6193 42.8127 22.2693 43.0309 22.3897C43.0309 22.3897 43.2189 22.4172 43.5176 22.4103L43.8431 23.3904" fill="#74BA91"/>
<path d="M41.274 10.3054L42.4881 5.24187L42.5879 4.89915L42.4395 4.84482L40.9369 4.54572C40.9369 4.54572 40.7315 2.7168 40.3109 2.28829L40.1763 2.26898L39.9431 5.88404L39.9565 5.99403C39.9565 5.99403 40.6595 5.58113 40.8029 5.05609L40.8919 4.70873L42.3029 5.04012L42.2783 5.13462L41.1074 10.2045L41.274 10.3054Z" fill="#D9D9D9"/>
<path d="M48.7848 23.8578L49.4523 24.885L47.2094 25.3022L46.5037 24.2429L48.7848 23.8578Z" fill="#202021"/>
<path d="M29.352 35.4988C28.976 35.6638 25.9609 37.6414 25.3164 37.8064C24.6719 37.9715 18.4669 38.5859 18.4669 38.5859L18.402 38.8013L18.3617 38.8243H17.5293V38.6042V38.0539V37.8704L17.9052 37.8612L18.3818 37.8566L18.4198 37.8818L18.4601 38.0171L23.3829 37.421C23.3829 37.421 24.5107 37.0084 24.6449 36.8707C24.7791 36.7332 20.0532 37.5861 20.0532 37.5861C20.0532 37.5861 19.5699 37.6502 19.4624 37.2879C19.3551 36.9258 19.2476 35.6051 19.2476 35.6051L19.0059 32.6613L24.3495 31.8633L30.2838 34.2844" fill="#202021"/>
<path d="M51.5889 24.1414C51.5889 24.1414 51.6718 23.9404 52.1551 23.8304C52.6384 23.7203 54.4913 23.4039 56.0889 23.8304C56.0889 23.8304 56.3306 23.9435 56.1561 24.1414C55.9816 24.3394 55.5922 24.6696 55.5922 24.6696C55.5922 24.6696 55.5788 24.8209 55.7399 24.9859C55.9009 25.151 56.3306 25.5499 56.3306 25.5499C56.3306 25.5499 56.4533 25.6988 56.438 25.8113C56.4228 25.9238 56.3172 25.9488 56.3172 25.9488L51.5889 24.1414Z" fill="#D9D9D9"/>
<path d="M42.627 14.1371L42.8061 14.5589L41.8394 15.2009L41.6783 14.5406L42.627 14.1371Z" fill="#202021"/>
<path d="M13.3947 20.9781L12.7289 21.5074L12.6429 21.5758L30.9023 21.8218C30.9023 21.8218 30.8308 21.4367 31.2962 21.4367C31.7616 21.4367 30.4727 20.0519 30.3295 19.9648C30.1863 19.8776 13.3947 20.9781 13.3947 20.9781Z" fill="#202021"/>
<path d="M53.0042 28.2095C49.414 28.2095 46.5037 31.1911 46.5037 34.8691C46.5037 38.5479 49.414 41.5293 53.0042 41.5293C56.5936 41.5293 59.5041 38.5479 59.5041 34.8691C59.5041 31.1911 56.5936 28.2095 53.0042 28.2095ZM53.0042 38.6978C50.9436 38.6978 49.2676 36.9805 49.2676 34.8691C49.2676 32.7586 50.9436 31.0412 53.0042 31.0412C55.0642 31.0412 56.7403 32.7586 56.7403 34.8691C56.7401 36.9805 55.0642 38.6978 53.0042 38.6978Z" fill="#202021"/>
<path d="M53.0135 30.8201C50.8115 30.8201 49.0264 32.6358 49.0264 34.8749C49.0264 37.1142 50.8115 38.9299 53.0135 38.9299C55.2157 38.9299 57.0006 37.1143 57.0006 34.8749C57.0006 32.6359 55.2157 30.8201 53.0135 30.8201ZM56.7193 34.8749C56.7193 35.05 56.7071 35.2215 56.6843 35.3903L54.7998 34.6133L54.6011 34.3394V34.2082V33.9939L55.6488 32.2284C56.3106 32.9098 56.7193 33.8446 56.7193 34.8749ZM54.7183 31.5301L53.3901 33.1521L53.0727 33.2614L52.9503 33.2215L52.7499 33.1563L51.3381 31.5147C51.8418 31.2541 52.411 31.1061 53.0135 31.1061C53.628 31.106 54.2075 31.2595 54.7183 31.5301ZM50.3575 32.2502L51.4834 33.9175L51.5011 34.2578L51.43 34.3668L51.3139 34.5456L49.3583 35.4914C49.3253 35.2904 49.3075 35.085 49.3075 34.8749C49.3072 33.8556 49.7088 32.9294 50.3575 32.2502ZM49.7047 36.5692L51.7521 36.15L52.0664 36.2659L52.1376 36.3755L52.2536 36.5542L52.3353 38.5798C51.1836 38.3622 50.2176 37.6016 49.7047 36.5692ZM52.6394 38.6247L52.712 36.3739L51.6727 35.6604L51.5655 35.6472L49.5755 36.2798C49.5128 36.1202 49.4596 35.9556 49.4177 35.7872L51.6559 34.9039L51.8942 33.6518L51.8651 33.5461L50.5913 32.0263C50.7437 31.8918 50.9066 31.7695 51.0789 31.6623L52.5033 33.5886L53.7534 33.4821L53.8447 33.4244L54.9893 31.6882C55.1428 31.7874 55.2883 31.8968 55.4254 32.0166L54.1213 33.8875L54.6011 35.0652L54.683 35.1368L56.6272 35.7085C56.5846 35.9001 56.5277 36.0858 56.4575 36.265L54.137 35.6862L53.2362 36.5739L53.2011 36.6776L53.3837 38.6254C53.2622 38.6377 53.1388 38.6442 53.0135 38.6442C52.8873 38.6442 52.7631 38.6377 52.6394 38.6247ZM53.7055 38.5775L53.7228 36.5953L53.9003 36.307L54.02 36.2588L54.2157 36.1802L56.3363 36.5424C55.8283 37.5842 54.8612 38.3544 53.7055 38.5775Z" fill="#D9D9D9"/>
<path d="M55.4727 34.8688C55.4727 36.2302 54.3959 37.3335 53.0679 37.3335C51.7394 37.3335 50.6627 36.2302 50.6627 34.8688C50.6627 33.508 51.7394 32.4047 53.0679 32.4047C54.396 32.4046 55.4727 33.508 55.4727 34.8688Z" fill="#D9D9D9"/>
<path d="M52.8525 35.5366L51.3175 33.1801L51.6571 32.8683L52.8525 35.5366Z" fill="#A5A5A5"/>
<path d="M10.1097 28.5724C6.51942 28.5724 3.60919 31.554 3.60919 35.232C3.60919 38.9109 6.51942 41.8923 10.1097 41.8923C13.6991 41.8923 16.6095 38.9109 16.6095 35.232C16.6095 31.554 13.6991 28.5724 10.1097 28.5724ZM10.1097 39.0608C8.04906 39.0608 6.37304 37.3435 6.37304 35.232C6.37304 33.1215 8.04906 31.4041 10.1097 31.4041C12.1697 31.4041 13.8457 33.1215 13.8457 35.232C13.8457 37.3435 12.1697 39.0608 10.1097 39.0608Z" fill="#202021"/>
<path d="M10.1182 31.1824C7.91624 31.1824 6.1311 32.9981 6.1311 35.2372C6.1311 37.4765 7.91624 39.2922 10.1182 39.2922C12.3204 39.2922 14.1053 37.4766 14.1053 35.2372C14.1051 32.9981 12.3202 31.1824 10.1182 31.1824ZM13.824 35.2372C13.824 35.4124 13.8118 35.5839 13.789 35.7526L11.9045 34.9756L11.7058 34.7017V34.5705V34.3562L12.7535 32.5907C13.4153 33.2721 13.824 34.2068 13.824 35.2372ZM11.8228 31.8923L10.4947 33.5143L10.1773 33.6236L10.0549 33.5837L9.85452 33.5185L8.44263 31.8769C8.94647 31.6163 9.51562 31.4683 10.1181 31.4683C10.7325 31.4683 11.3121 31.6217 11.8228 31.8923ZM7.46204 32.6124L8.58795 34.2797L8.60571 34.6201L8.53457 34.729L8.41845 34.9078L6.46287 35.8536C6.42993 35.6527 6.41206 35.4472 6.41206 35.2371C6.41194 34.2178 6.81333 33.2917 7.46204 32.6124ZM6.80925 36.9316L8.85664 36.5124L9.171 36.6282L9.24215 36.7378L9.35815 36.9166L9.43992 38.9421C8.28819 38.7245 7.3222 37.9638 6.80925 36.9316ZM9.74412 38.987L9.81667 36.7363L8.77732 36.0227L8.67008 36.0095L6.68004 36.6421C6.61743 36.4826 6.56416 36.3179 6.52234 36.1495L8.7605 35.2662L8.99881 34.0139L8.96972 33.9083L7.69591 32.3885C7.84825 32.254 8.01121 32.1317 8.18352 32.0244L9.60791 33.9508L10.858 33.8443L10.9492 33.7866L12.0938 32.0505C12.2473 32.1497 12.3929 32.2591 12.5299 32.379L11.2259 34.2497L11.7057 35.4275L11.7875 35.4991L13.7318 36.0709C13.6891 36.2625 13.6323 36.4481 13.562 36.6274L11.2415 36.0486L10.3407 36.9362L10.3057 37.0399L10.4883 38.9878C10.3668 39 10.2434 39.0066 10.1181 39.0066C9.9919 39.0065 9.86772 38.9999 9.74412 38.987ZM10.8101 38.9397L10.8274 36.9576L11.0048 36.6692L11.1246 36.621L11.3203 36.5424L13.4409 36.9047C12.933 37.9465 11.9659 38.7168 10.8101 38.9397Z" fill="#A5A5A5"/>
<path d="M12.5769 35.2314C12.5769 36.5929 11.5001 37.6962 10.1721 37.6962C8.84361 37.6962 7.76688 36.5929 7.76688 35.2314C7.76688 33.8707 8.84361 32.7673 10.1721 32.7673C11.5002 32.7673 12.5769 33.8707 12.5769 35.2314Z" fill="#A5A5A5"/>
<path d="M10.1748 36.5632C9.45834 36.5632 8.87506 35.9662 8.87506 35.2317C8.87506 34.4978 9.45823 33.9006 10.1748 33.9006C10.8913 33.9006 11.474 34.4978 11.474 35.2317C11.474 35.9662 10.8911 36.5632 10.1748 36.5632Z" fill="#A5A5A5"/>
<path d="M10.5292 35.2317C10.5292 35.4323 10.3702 35.5951 10.1748 35.5951C9.97905 35.5951 9.82053 35.4323 9.82053 35.2317C9.82053 35.0317 9.97905 34.8686 10.1748 34.8686C10.3703 34.8686 10.5292 35.0317 10.5292 35.2317Z" fill="white"/>
<path d="M53.4922 35.6473C53.2398 35.7891 52.9224 35.6946 52.7838 35.4359L48.3482 27.1591C48.2094 26.9004 48.3016 26.5754 48.5544 26.4335C48.8066 26.2916 49.1239 26.3861 49.2625 26.6445L53.6982 34.9216C53.8369 35.18 53.7447 35.5052 53.4922 35.6473Z" fill="#202021"/>
<path d="M3.04782 32.0569L24.6011 32.7906L23.8492 34.2945C23.8492 34.2945 23.5986 34.6246 24.1356 34.698C24.6727 34.7714 25.8542 34.698 25.8542 34.698V35.285L30.0431 35.5418V36.4589H39.2086C39.2086 36.4589 40.5332 36.4956 41.9655 34.258C43.3976 32.0204 44.8654 30.2228 46.1185 24.9772L49.4482 23.84C49.4482 23.84 49.5914 22.6511 48.3741 21.5765C48.3741 21.5765 48.0071 21.3135 47.2552 20.4331C46.5033 19.5527 45.3756 15.5772 43.5228 14.1465L41.1061 15.5497C41.1061 15.5497 42.5292 17.8607 42.5292 17.9707C42.5292 18.0808 42.6635 18.466 42.4219 18.6585C42.1802 18.8511 41.858 19.6123 42.1892 20.1625C42.5204 20.7127 42.8873 20.9237 43.0038 21.1163C43.1201 21.3088 45.2951 25.0139 40.7302 30.0211C40.7302 30.0211 39.7904 31.1491 38.394 31.2042C36.9977 31.2592 32.782 31.1766 32.782 31.1766C32.782 31.1766 29.9894 31.1766 29.4524 30.3787C28.9153 29.5809 27.331 26.9672 28.8079 24.5186C28.8079 24.5186 29.8014 23.5006 30.4995 23.088C31.1977 22.6753 31.1754 21.8224 31.1172 21.7399C31.1172 21.7399 31.1039 21.5702 30.4995 21.5764C29.6403 21.5852 12.643 21.5764 12.643 21.5764L12.5087 21.6865C12.5087 21.6865 11.918 21.9049 11.3541 22.18L10.4233 22.6294C10.4232 22.6293 3.97865 25.784 3.04782 32.0569Z" fill="#79DEA8"/>
<path d="M47.121 24.9399L49.7793 24.0779C49.7793 24.0779 55.7941 23.6101 58.3987 28.1497C58.3987 28.1497 58.5598 28.4523 58.1034 28.5623C57.6469 28.6724 53.458 29.03 52.8673 29.2501C52.2765 29.4702 50.3431 30.0205 48.6515 31.286C48.6515 31.286 46.9329 32.8542 44.5431 32.9368H44.2746C44.2746 32.9368 43.8718 32.8267 43.9524 32.5517C44.033 32.2765 43.9524 31.6713 44.7311 30.2957C45.5098 28.9201 45.9622 27.0115 46.1543 26.1872C46.3933 25.1618 46.8986 25.0239 47.121 24.9399Z" fill="#79DEA8"/>
<path d="M31.9749 21.4372H13.4469C13.4469 21.4372 12.4534 21.3822 12.5609 20.3918C12.6682 19.4013 12.8429 19.0643 12.9514 18.9581C13.1438 18.7702 30.8471 18.4934 30.8471 18.4934H31.2768C31.2768 18.4934 31.787 18.8236 31.9749 19.6489C32.1629 20.4743 32.0756 21.3753 31.9749 21.4372Z" fill="#0B0C0C"/>
<path d="M22.5236 35.6058L9.50035 36.6238C9.50035 36.6238 8.37257 36.7064 8.21147 35.7434C8.21147 35.7434 7.91615 34.6154 9.07068 34.2852L21.7986 32.4419C21.7986 32.4419 23.732 32.3593 23.7588 34.1751C23.7588 34.1751 23.8125 35.1656 22.5236 35.6058Z" fill="#74BA91"/>
<path d="M22.1029 35.348L10.1914 36.3612C10.1914 36.3612 9.15989 36.4443 9.00195 35.6406C9.00195 35.6406 8.71936 34.7003 9.77285 34.4098L21.4051 32.7094C21.4051 32.7094 23.1741 32.6164 23.2183 34.1355C23.2182 34.1355 23.2781 34.9637 22.1029 35.348Z" fill="#79DEA8"/>
<path d="M5.177 32.001C5.177 32.001 16.1999 33.252 24.9749 32.8993C24.9749 32.8993 28.1865 23.0851 17.7065 22.5078C17.7065 22.5079 6.36028 22.1292 5.177 32.001Z" fill="#74BA91"/>
<path d="M12.9492 18.9623C12.9492 18.9623 12.0418 19.3565 22.8228 19.1837L31.4606 18.7457L31.4981 18.6936L31.408 18.601L31.3496 18.5487L31.2777 18.4934L30.7138 18.4956C30.7138 18.4956 13.2009 18.6192 12.9492 18.9623Z" fill="#202021"/>
<path d="M5.177 32.0011C5.177 32.0011 16.0789 33.4317 24.5105 32.6614C24.5105 32.6614 27.5717 23.3071 17.5827 22.7568C17.5827 22.7569 6.30479 22.5919 5.177 32.0011Z" fill="#79DEA8"/>
<path d="M42.4468 32.5515C42.4468 32.5515 41.2117 34.771 37.7746 34.7341C37.6851 34.7159 24.8856 34.3857 24.8856 34.3857C24.8856 34.3857 24.756 34.3857 24.7649 34.3261C24.7649 34.3261 24.8051 34.2939 24.8947 34.2849C24.9842 34.2756 27.195 34.3169 27.195 34.3169L34.3913 34.2574C34.3913 34.2574 38.6071 34.3261 39.1038 34.2161C39.6005 34.1061 40.3658 34.0786 41.5607 33.1294C42.7557 32.1802 42.2408 32.5929 42.4467 32.4278C42.4468 32.4278 42.5927 32.3345 42.4468 32.5515Z" fill="#202021"/>
<path d="M42.8416 14.1736L41.1947 15.0907C41.1947 15.0907 39.7626 12.4586 40.1385 11.3536C40.5144 10.2486 41.4759 9.10761 42.5124 8.57948C43.4106 8.12189 44.4885 7.53406 45.6342 7.77251C45.6342 7.77251 46.046 9.25823 45.7774 12.3029C45.7774 12.3029 45.6521 12.4862 45.0972 12.4679C44.5423 12.4495 42.6625 12.156 42.6984 13.3299L42.8416 14.1736Z" fill="#79DEA8"/>
<path d="M40.8188 3.92546C40.8188 3.92546 40.7489 2.48608 40.4335 2.31818C40.4335 2.31818 40.1872 2.12073 40.1666 2.3351L40.1483 2.52672C40.1483 2.5266 40.5058 2.45415 40.8188 3.92546Z" fill="#A5A5A5"/>
<path d="M45.777 12.303L45.6338 7.77264L46.3811 7.90098C46.3811 7.90098 46.5557 7.90098 46.5557 8.35499C46.5557 8.80901 46.3991 10.1845 46.0948 12.2205C46.0948 12.2204 46.1128 12.2893 45.777 12.303Z" fill="#D9D9D9"/>
<path d="M43.5519 14.6686C43.5519 14.6686 47.1966 22.0404 44.9768 28.2032C44.9768 28.2032 44.0917 30.7343 42.8028 32.972C42.8028 32.972 45.4282 29.3464 46.3732 24.6083C46.3732 24.6083 47.0248 20.3913 43.6951 14.3019C43.6951 14.3019 43.5217 13.9946 43.4277 14.2559C43.4277 14.2558 43.4009 14.3288 43.5519 14.6686Z" fill="#74BA91"/>
<path d="M41.741 2.67911L40.3271 2.69842C40.4092 2.12548 40.3624 1.40466 40.0138 0.549547L39.9353 0.268321L39.8033 0.0836182L39.6745 0.100539C39.6745 0.100539 39.5345 1.54146 39.3069 4.14923L39.4216 4.39769L39.6189 4.27531C39.6189 4.27531 40.052 3.93009 40.2844 2.93698C40.7265 2.92364 41.6057 2.87943 41.7979 2.96296C41.9555 3.03148 41.9819 3.3873 41.9819 3.3873L41.6514 10.1297L41.8238 10.107C41.8238 10.107 42.2242 3.93879 42.2395 3.35406C42.2548 2.76944 41.741 2.67911 41.741 2.67911Z" fill="#D9D9D9"/>
<path d="M40.1393 10.6296L41.1127 10.3945C41.1127 10.3945 41.7573 10.3891 41.8847 11.0702C41.8847 11.0702 42.0176 11.8603 41.3309 11.8958L40.685 12.0659C40.685 12.0659 40.0333 11.4873 40.0671 11.3789C40.1008 11.2704 40.1393 10.6296 40.1393 10.6296Z" fill="#A5A5A5"/>
<path d="M39.7169 10.8653L38.2696 11.2334C38.2696 11.2334 38.4824 12.4554 38.545 12.4302C38.6076 12.4051 40.1678 12.0599 40.1678 12.0599C40.1678 12.0599 40.4345 12.1559 40.6271 12.0993C40.8196 12.0428 41.3234 11.6253 40.9739 10.9327C40.9739 10.9327 40.6973 10.4883 40.1432 10.6119C40.1432 10.6119 39.8051 10.6535 39.7169 10.8653Z" fill="#0B0C0C"/>
<path d="M38.9332 11.6778C39.0117 12.0189 38.8055 12.3604 38.4725 12.4408C38.1397 12.5212 37.8064 12.31 37.7279 11.9689C37.6606 11.6764 37.8028 11.3834 38.0547 11.2553C38.0964 11.2341 38.1411 11.2174 38.1884 11.2059C38.5213 11.1256 38.8547 11.3369 38.9332 11.6778Z" fill="#202021"/>
<path d="M43.7631 19.5846C43.7631 19.9544 43.4706 20.2541 43.1097 20.2541C42.7489 20.2541 42.4564 19.9544 42.4564 19.5846C42.4564 19.2149 42.7489 18.9152 43.1097 18.9152C43.4706 18.9152 43.7631 19.2149 43.7631 19.5846Z" fill="#202021"/>
<path d="M48.2294 24.5797C48.2294 24.5797 47.2447 25.4531 44.8517 30.07C45.0249 29.8919 45.6451 28.1799 45.848 27.3974C46.051 26.6148 46.1213 25.3206 46.8545 25.0542L48.2294 24.5797Z" fill="#74BA91"/>
<path d="M45.6746 21.1917C45.6746 21.1917 45.9244 22.5795 45.9416 23.9734C45.9416 23.9734 45.9252 24.7444 46.1405 24.7572C46.245 24.6443 46.6595 24.7435 46.5839 23.1675C46.5839 23.1675 46.6258 21.2766 46.249 20.5344C46.249 20.5344 45.9089 19.8279 45.6529 20.33C45.6529 20.3299 45.48 20.573 45.6746 21.1917Z" fill="#D9D9D9"/>
<path d="M46.1463 20.3624C46.1463 20.3624 45.8312 20.1527 45.7865 20.5838C45.7865 20.5838 45.9727 23.3249 45.9378 23.8023C45.9028 24.2797 45.7625 21.5406 45.6134 20.9567C45.5958 20.8542 45.4677 20.3667 45.7613 20.1863C45.7614 20.1863 45.8706 20.0219 46.1463 20.3624Z" fill="#A5A5A5"/>
<path d="M3.86955 23.553C3.86955 23.553 3.80694 25.022 4.20962 25.3614C4.20962 25.3614 4.238 25.3935 4.69302 25.3981C4.70202 25.3751 4.44688 24.2655 4.52305 23.4401C4.5991 22.6148 4.56487 22.3947 4.81019 21.7069C4.81019 21.7069 4.44408 21.6657 4.33812 21.7023C4.23216 21.739 4.14712 21.7802 4.08894 21.9269C4.03065 22.0736 3.87387 22.7259 3.86955 23.553Z" fill="#D9D9D9"/>
<path d="M17.3529 21.5781C17.3529 21.5781 17.0589 22.5936 16.608 22.5213C16.1311 22.4449 15.7015 22.2275 15.7954 22.0522C15.8895 21.8769 14.7313 21.5254 14.7313 21.5254L17.3529 21.5781Z" fill="#202021"/>
<path d="M16.8712 22.2109C16.8439 22.3653 16.6993 22.4679 16.5486 22.4399L6.57883 20.5891C6.42801 20.5611 6.3279 20.4132 6.35524 20.2586C6.38245 20.1042 6.52696 20.0015 6.67778 20.0296L16.6476 21.8805C16.7984 21.9085 16.8985 22.0565 16.8712 22.2109Z" fill="#D9D9D9"/>
<path d="M11.1431 20.5917C11.1242 20.7368 10.981 20.7997 10.8765 20.7853L4.01683 19.8813C3.91239 19.8671 3.84312 19.7376 3.86216 19.5925C3.88108 19.4472 3.9812 19.3412 4.08552 19.3555L10.9882 20.3027C11.0929 20.3171 11.1621 20.4465 11.1431 20.5917Z" fill="#D9D9D9"/>
<path d="M3.86248 19.5928C3.86248 19.5928 3.83479 19.3826 4.05862 19.2358C4.28245 19.0891 4.89108 18.8249 4.89108 18.8249L5.14166 19.2088C5.14166 19.2088 4.57345 19.4226 4.62765 19.4301C4.68174 19.4375 4.54167 19.6013 4.5016 19.5928C4.46142 19.5842 3.86248 19.5928 3.86248 19.5928Z" fill="#D9D9D9"/>
<path d="M5.14259 19.2093C5.14259 19.2093 5.09107 19.2076 5.37973 19.2093C5.66839 19.211 7.27946 19.4655 7.27946 19.4655L10.7702 20.0928H10.797L10.6829 20.2221C10.6829 20.2221 10.6466 20.2564 10.5486 20.2429C10.4506 20.2295 10.4479 20.3315 10.5419 20.3558C10.6359 20.3802 11.0408 20.7501 11.0408 20.7501L11.4271 20.4298C11.4271 20.4298 11.8174 20.0362 11.2334 19.823C10.6494 19.6098 5.39305 18.8252 5.39305 18.8252C5.39305 18.8252 5.04224 18.7584 4.89189 18.8252C4.74154 18.892 4.76876 19.149 4.80229 19.149C4.83582 19.149 4.98359 19.2147 5.01712 19.2093C5.05076 19.2041 5.14259 19.2093 5.14259 19.2093Z" fill="#D9D9D9"/>
<path d="M11.8716 20.9943L12.0876 19.4751L12.213 18.825C12.213 18.825 12.1043 20.0521 12.0423 20.6024L12.4099 20.7499L12.8396 18.1813C12.8396 18.1813 12.8396 17.8971 12.6426 17.8421C12.4458 17.787 12.2846 17.7686 12.2846 17.7686H12.1526C12.1526 17.7686 11.9018 17.6143 11.5204 20.0254L11.4074 20.9942H11.8716V20.9943Z" fill="#D9D9D9"/>
<path d="M9.40137 19.5931L8.82848 20.1988L8.25571 20.0711L8.739 19.5931H9.40137Z" fill="#D9D9D9"/>
<path d="M7.43221 19.2095L6.89029 19.7412H6.23282L6.75209 19.2095H7.43221Z" fill="#D9D9D9"/>
<path fill-rule="evenodd" clip-rule="evenodd" d="M53.2564 23.6632C53.2564 23.6632 52.9487 23.9544 53.2564 24.0644C53.5641 24.1744 54.8933 24.4908 55.7392 24.986C55.7392 24.986 53.873 24.2432 52.7317 24.0094C52.7317 24.0094 52.5807 23.9818 52.6109 23.9062C52.6411 23.8304 52.9386 23.6713 53.2564 23.6632Z" fill="#A5A5A5"/>
<path d="M45.7274 10.7347L45.6338 7.77264L46.3093 7.88871L46.3811 7.90098C46.3811 7.90098 46.4848 7.91481 46.515 8.04791C46.515 8.04791 46.0455 8.04314 45.9783 8.07985C45.9111 8.11655 45.8083 8.16695 45.7993 8.4788C45.7903 8.79053 45.7274 10.7347 45.7274 10.7347Z" fill="#A5A5A5"/>
<path d="M4.83412 21.7082C4.83412 21.7082 4.54242 23.0687 4.50235 23.8574C4.50235 23.8574 4.60504 22.2434 4.50235 22.1792C4.39967 22.1149 4.03823 22.1009 4.02643 22.1523C4.02643 22.1523 4.05049 21.7475 4.3846 21.6871L4.83412 21.7082Z" fill="#A5A5A5"/>
<path d="M40.3284 1.69022C40.3284 1.69022 40.2586 0.250851 39.9431 0.0829504C39.9431 0.0829504 39.6968 -0.114503 39.6762 0.0998716L39.6579 0.291486C39.6578 0.291486 40.0153 0.218916 40.3284 1.69022Z" fill="#A5A5A5"/>
<path d="M12.0414 20.6026C12.0414 20.6026 12.5116 20.2437 12.672 19.178L12.4494 20.7881L12.1451 20.7174L12.0414 20.6026Z" fill="#A5A5A5"/>
<path d="M0 14.7503V14.9132V15.2879V17.6983C0 17.6983 0.103853 19.2635 1.57205 19.4762C3.04037 19.6889 8.69096 20.3592 8.69096 20.3592C8.69096 20.3592 10.5301 20.5762 11.0046 19.7754C11.4185 19.0771 12.2201 16.6694 12.2652 14.9132C12.2849 14.1462 11.6423 12.0911 9.78837 11.3464C9.78837 11.3464 7.13375 10.0396 4.5234 10.9058C4.5234 10.9058 2.19494 11.5744 0.741459 13.1547C0.741575 13.1547 0.0741809 13.8994 0 14.7503Z" fill="#202021"/>
<path d="M0.927155 13.4539C0.927155 13.4539 3.84299 10.1181 7.89794 11.2224C8.05203 11.2643 8.20787 11.3127 8.36522 11.368C8.36522 11.368 5.70686 12.8908 4.52534 13.0073C3.34382 13.1239 0.927155 13.4539 0.927155 13.4539Z" fill="#B3494A"/>
<path d="M7.85336 11.2113C7.85336 11.2113 5.22642 12.5394 4.54162 12.7044C3.85682 12.8695 0.981984 13.3901 0.981984 13.3901L0.92334 13.454C0.92334 13.454 4.39302 13.1852 5.152 12.8658C5.9111 12.5463 6.93153 12.223 8.39493 11.3632L7.85336 11.2113Z" fill="#A6373D"/>
<path d="M12.2653 14.9124C12.2653 14.9124 8.92052 16.2616 0 14.7495V14.785C0 14.785 8.77718 16.3928 12.2624 14.9986L12.2653 14.9124Z" fill="#25292A"/>
<path d="M25.1046 27.6072H5.82483V28.3027H25.1046V27.6072Z" fill="white"/>
<path d="M25.1049 28.3026H5.82523H5.14148V29.0168H25.2708V28.3026H25.1049Z" fill="#F7B328"/>
<path d="M8.49314 27.0972L7.20426 28.6791C7.20426 28.6791 6.80146 29.2568 6.57319 29.0917C6.57319 29.0917 6.26619 28.8353 6.62868 28.0433C6.62868 28.0433 7.64724 26.6295 8.09034 26.2993C8.53344 25.9691 8.90937 25.8453 9.00329 26.1618C9.00329 26.1618 9.14523 26.2966 8.49314 27.0972Z" fill="#D9D9D9"/>
<path d="M8.23829 26.189C8.23829 26.189 8.81561 26.0515 8.78874 26.3059C8.78874 26.3059 8.85907 26.382 8.34564 27.145L7.47043 28.3523C7.47043 28.3523 8.81444 26.776 8.92975 26.5535C9.04493 26.331 9.13675 26.1949 8.93255 26.0372C8.93255 26.0373 8.84248 25.8107 8.23829 26.189Z" fill="#A5A5A5"/>
<path d="M16.4678 31.6922C18.3605 31.6922 19.8947 30.112 19.8947 28.1626C19.8947 26.2133 18.3605 24.633 16.4678 24.633C14.5752 24.633 13.0409 26.2133 13.0409 28.1626C13.0409 30.112 14.5752 31.6922 16.4678 31.6922Z" fill="#29333D"/>
<path d="M14.0949 28.2639L13.6541 27.4341H14.1593L14.3239 27.7424L14.4857 27.4341H14.991L14.5501 28.2639V28.8911H14.0959L14.0949 28.2639Z" fill="white"/>
<path d="M17.1373 27.9292C17.1089 27.905 17.0768 27.8866 17.0417 27.876C17.0048 27.8643 16.967 27.8575 16.9291 27.8575C16.8903 27.8565 16.8515 27.8652 16.8165 27.8807C16.7834 27.8953 16.7531 27.9166 16.7276 27.9438C16.702 27.9719 16.6822 28.0048 16.669 28.0408C16.6548 28.0795 16.6472 28.1212 16.6472 28.1629C16.6472 28.2046 16.6548 28.2463 16.6708 28.285C16.686 28.3219 16.7077 28.3549 16.7352 28.382C16.7626 28.4092 16.7948 28.4305 16.8298 28.4451C16.8667 28.4606 16.9064 28.4683 16.9462 28.4683C16.9925 28.4693 17.0371 28.4576 17.0786 28.4364C17.1184 28.415 17.1534 28.386 17.1809 28.3501H17.0532V28.0447H17.6009V28.5294C17.5688 28.5885 17.529 28.6429 17.4837 28.6923C17.4382 28.7408 17.3872 28.7835 17.3313 28.8184C17.2746 28.8533 17.2131 28.8805 17.1487 28.8988C16.7542 29.0151 16.3427 28.7825 16.2291 28.3793C16.2093 28.3095 16.1998 28.2358 16.1998 28.1631C16.1989 28.0614 16.2178 27.9606 16.2556 27.8665C16.2907 27.7763 16.3427 27.693 16.408 27.6232C16.4733 27.5534 16.5518 27.4982 16.6379 27.4594C16.7288 27.4186 16.8262 27.3982 16.9246 27.3993C16.9945 27.3984 17.0637 27.4061 17.1318 27.4235C17.1828 27.4371 17.2321 27.4545 17.2784 27.4778C17.3209 27.4982 17.3598 27.5234 17.3957 27.5545L17.1373 27.9292Z" fill="white"/>
<path d="M17.7913 28.1627C17.7904 28.061 17.8112 27.9592 17.85 27.8661C17.9257 27.6819 18.0685 27.5365 18.2474 27.4589C18.4328 27.3785 18.6419 27.3785 18.8274 27.4589C19.0072 27.5365 19.1491 27.6829 19.2248 27.8661C19.3033 28.0561 19.3033 28.2703 19.2248 28.4604C19.1491 28.6446 19.0063 28.79 18.8274 28.8676C18.642 28.948 18.4329 28.948 18.2474 28.8676C18.0676 28.79 17.9257 28.6437 17.85 28.4604C17.8102 28.3663 17.7904 28.2645 17.7913 28.1627ZM18.2389 28.1627C18.2389 28.2035 18.2465 28.2441 18.2625 28.282C18.2927 28.3556 18.3495 28.4138 18.4215 28.4449C18.4962 28.4768 18.5795 28.4768 18.6542 28.4449C18.7261 28.4139 18.7828 28.3558 18.8132 28.282C18.8444 28.2054 18.8444 28.1201 18.8132 28.0436C18.7829 27.9699 18.7261 27.9118 18.6542 27.8807C18.5794 27.8487 18.4961 27.8487 18.4215 27.8807C18.3495 27.9116 18.2928 27.9698 18.2625 28.0436C18.2465 28.0812 18.2389 28.122 18.2389 28.1627Z" fill="white"/>
<path d="M15.1695 27.4257H16.0078V27.8086H15.6237V27.9705H16.0013V28.3331H15.6237V28.5019H16.023V28.8848H15.1696V27.4257H15.1695Z" fill="white"/>
<path d="M15.164 29.7781H15.1347V29.7394H15.1338C15.1319 29.7442 15.1291 29.749 15.1243 29.7539C15.1206 29.7588 15.1149 29.7645 15.1082 29.7684C15.1015 29.7733 15.0941 29.7762 15.0855 29.7792C15.077 29.782 15.0666 29.7831 15.0553 29.7831C15.043 29.7831 15.0326 29.7821 15.0232 29.7792C15.0137 29.7763 15.0061 29.7733 14.9996 29.7695C14.9929 29.7656 14.9873 29.7618 14.9825 29.7569C14.9777 29.752 14.974 29.7482 14.9712 29.7452C14.9626 29.7346 14.957 29.722 14.9541 29.7074C14.9513 29.6929 14.9504 29.6793 14.9504 29.6657V29.5281H14.9816V29.6648C14.9816 29.6802 14.9834 29.6938 14.9864 29.7046C14.9892 29.7152 14.9939 29.724 14.9986 29.7308C15.0071 29.7404 15.0166 29.7472 15.027 29.7502C15.0374 29.7532 15.0469 29.7551 15.0554 29.7551C15.0639 29.7551 15.0724 29.7541 15.0819 29.7511C15.0914 29.7483 15.099 29.7434 15.1075 29.7357C15.1112 29.7317 15.1142 29.7279 15.1179 29.724C15.1207 29.72 15.1236 29.7153 15.1255 29.7094C15.1274 29.7036 15.1292 29.6968 15.1312 29.6891C15.1321 29.6813 15.1331 29.6717 15.1331 29.6609V29.5291H15.1643V29.7781H15.164Z" fill="#F9B13D"/>
<path d="M15.2241 29.5302H15.2552V29.5661H15.2561C15.2598 29.5574 15.2637 29.5506 15.2693 29.5448C15.2741 29.5399 15.2796 29.5351 15.2863 29.5321C15.292 29.5293 15.2985 29.5272 15.3052 29.5253C15.3118 29.5244 15.3183 29.5234 15.325 29.5234V29.5574C15.3137 29.5583 15.3042 29.5613 15.2948 29.5651C15.2854 29.5689 15.2787 29.5748 15.2722 29.5825C15.2665 29.5893 15.2628 29.5971 15.26 29.6058C15.2572 29.6145 15.2552 29.6242 15.2552 29.6339V29.7792H15.2241V29.5302Z" fill="#F9B13D"/>
<path d="M15.3592 29.4423H15.3904V29.5741H15.3913C15.398 29.5644 15.4055 29.5556 15.414 29.5488C15.4225 29.542 15.4311 29.5371 15.4396 29.5333C15.4481 29.5294 15.4566 29.5265 15.4642 29.5256C15.4728 29.5246 15.4794 29.5236 15.486 29.5236C15.5058 29.5236 15.5238 29.5276 15.54 29.5343C15.5561 29.542 15.5702 29.5516 15.5806 29.5633C15.5919 29.576 15.6005 29.5895 15.6071 29.605C15.6138 29.6205 15.6166 29.637 15.6166 29.6535C15.6166 29.6709 15.6138 29.6885 15.6071 29.7039C15.6005 29.7194 15.5919 29.734 15.5806 29.7457C15.5693 29.7573 15.555 29.767 15.539 29.7738C15.5229 29.7806 15.5049 29.7844 15.486 29.7844C15.4793 29.7844 15.4728 29.7834 15.4642 29.7825C15.4557 29.7815 15.4481 29.7785 15.4387 29.7747C15.4301 29.7708 15.4216 29.766 15.4131 29.7592C15.4045 29.7524 15.3969 29.7447 15.3904 29.734H15.3895V29.7776H15.3583V29.4421H15.3592V29.4423ZM15.5854 29.6556C15.5854 29.6401 15.5826 29.6255 15.5778 29.6129C15.573 29.6003 15.5655 29.5897 15.5561 29.581C15.5466 29.5723 15.5362 29.5655 15.5239 29.5606C15.5117 29.5557 15.4993 29.5528 15.4861 29.5528C15.472 29.5528 15.4596 29.5557 15.4473 29.5615C15.435 29.5674 15.4256 29.5742 15.4161 29.5838C15.4076 29.5935 15.4009 29.6042 15.3953 29.6168C15.3906 29.6295 15.3877 29.642 15.3877 29.6556C15.3877 29.6701 15.3905 29.6837 15.3953 29.6963C15.4001 29.7089 15.4076 29.7196 15.4161 29.7283C15.4246 29.737 15.435 29.7447 15.4473 29.7496C15.4596 29.7545 15.472 29.7573 15.4842 29.7573C15.4994 29.7573 15.5126 29.7545 15.5249 29.7496C15.5371 29.7447 15.5475 29.737 15.5561 29.7283C15.5646 29.7196 15.5713 29.7088 15.5759 29.6963C15.5835 29.6826 15.5854 29.6701 15.5854 29.6556Z" fill="#F9B13D"/>
<path d="M15.9088 29.78H15.8776V29.7364H15.8766C15.87 29.747 15.8625 29.7548 15.854 29.7615C15.8455 29.7683 15.8369 29.7732 15.8284 29.777C15.8199 29.7809 15.8113 29.7828 15.8028 29.7848C15.7943 29.7867 15.7876 29.7867 15.7811 29.7867C15.7621 29.7867 15.7442 29.7827 15.7291 29.7761C15.713 29.7693 15.6998 29.7596 15.6875 29.7479C15.6762 29.7362 15.6667 29.7217 15.66 29.7062C15.6534 29.6907 15.6506 29.6732 15.6506 29.6558C15.6506 29.6393 15.6534 29.6228 15.66 29.6073C15.6667 29.5918 15.6752 29.5782 15.6866 29.5656C15.6979 29.5529 15.7112 29.5433 15.7272 29.5365C15.7433 29.5287 15.7613 29.5258 15.7812 29.5258C15.7879 29.5258 15.7953 29.5267 15.8039 29.5277C15.8124 29.5286 15.8209 29.5316 15.8294 29.5354C15.838 29.5393 15.8465 29.5441 15.855 29.5509C15.8636 29.5577 15.8702 29.5654 15.8768 29.5761H15.8777V29.5324H15.9089V29.78H15.9088ZM15.6817 29.6559C15.6817 29.6695 15.6845 29.6831 15.6892 29.6957C15.6939 29.7084 15.7006 29.719 15.7091 29.7277C15.7176 29.7364 15.728 29.7441 15.7403 29.749C15.7526 29.7539 15.7659 29.7567 15.781 29.7567C15.7942 29.7567 15.8065 29.7539 15.8179 29.749C15.8301 29.7441 15.8396 29.7364 15.8491 29.7277C15.8576 29.719 15.8652 29.7082 15.8699 29.6957C15.8747 29.6831 15.8775 29.6695 15.8775 29.655C15.8775 29.6414 15.8747 29.6278 15.8699 29.6162C15.8652 29.6036 15.8585 29.593 15.85 29.5832C15.8415 29.5734 15.8311 29.5668 15.8188 29.5609C15.8065 29.5551 15.7942 29.5522 15.78 29.5522C15.7668 29.5522 15.7544 29.5551 15.7422 29.56C15.7299 29.5649 15.7195 29.5716 15.71 29.5803C15.7006 29.589 15.6939 29.5998 15.6883 29.6123C15.6826 29.6248 15.6817 29.6404 15.6817 29.6559Z" fill="#F9B13D"/>
<path d="M15.9633 29.5303H15.9945V29.5623H15.9955C15.9983 29.5584 16.0012 29.5545 16.0049 29.5497C16.0087 29.5448 16.0144 29.541 16.0201 29.537C16.0268 29.5331 16.0333 29.5302 16.0418 29.5274C16.0504 29.5245 16.0589 29.5234 16.0693 29.5234C16.0845 29.5234 16.0986 29.5253 16.1109 29.5302C16.1231 29.5351 16.1355 29.5429 16.1469 29.5544C16.1563 29.5631 16.163 29.5758 16.1686 29.5893C16.1743 29.6039 16.1771 29.6213 16.1771 29.6416V29.7783H16.1459V29.6416C16.1459 29.6252 16.144 29.6116 16.1393 29.5999C16.1346 29.5883 16.1298 29.5796 16.1222 29.5728C16.1137 29.5641 16.1042 29.5582 16.0948 29.5554C16.0844 29.5525 16.0768 29.5514 16.0692 29.5514C16.0625 29.5514 16.054 29.5533 16.0436 29.5554C16.0332 29.5582 16.0247 29.5641 16.0161 29.5728C16.0095 29.5796 16.0039 29.5883 16 29.599C15.9952 29.6096 15.9933 29.6232 15.9933 29.6388V29.7783H15.9622V29.5301H15.9633V29.5303Z" fill="#F9B13D"/>
<path d="M16.3912 29.5595C16.3978 29.5478 16.4073 29.5391 16.4186 29.5333C16.43 29.5275 16.4433 29.5246 16.4574 29.5246C16.4754 29.5246 16.4915 29.5285 16.5057 29.5372C16.5198 29.5459 16.5312 29.5576 16.5398 29.5731C16.5587 29.5412 16.5862 29.5256 16.6212 29.5256C16.6353 29.5256 16.6487 29.5284 16.6609 29.5333C16.6732 29.5382 16.6836 29.5459 16.6921 29.5546C16.7006 29.5643 16.7073 29.575 16.712 29.5886C16.7166 29.6022 16.7196 29.6167 16.7196 29.6331V29.7815H16.6884V29.6352C16.6884 29.608 16.6826 29.5876 16.6704 29.574C16.659 29.5595 16.642 29.5527 16.6221 29.5527C16.6013 29.5527 16.5852 29.5595 16.5739 29.574C16.5626 29.5886 16.5559 29.6089 16.5559 29.6352V29.7796H16.5247V29.6352C16.5247 29.608 16.519 29.5876 16.5067 29.574C16.4954 29.5595 16.4783 29.5527 16.4585 29.5527C16.4386 29.5527 16.4216 29.5595 16.4102 29.574C16.3989 29.5886 16.3922 29.6089 16.3922 29.6352V29.7796H16.3601V29.5304H16.3913V29.5595H16.3912Z" fill="#F9B13D"/>
<path d="M16.7634 29.6563C16.7634 29.6369 16.7671 29.6185 16.7747 29.602C16.7823 29.5855 16.7918 29.5719 16.8031 29.5603C16.8144 29.5486 16.8287 29.5399 16.8438 29.5331C16.859 29.5263 16.875 29.5234 16.8911 29.5234C16.9091 29.5234 16.9261 29.5274 16.9412 29.534C16.9564 29.5408 16.9705 29.5505 16.9819 29.5631C16.9932 29.5757 17.0026 29.5893 17.0084 29.6048C17.015 29.6203 17.0178 29.6368 17.0178 29.6543C17.0178 29.6718 17.015 29.6873 17.0084 29.7037C17.0017 29.7192 16.9932 29.7338 16.9819 29.7454C16.9705 29.7571 16.9572 29.7668 16.9412 29.7745C16.926 29.7823 16.9091 29.7852 16.8901 29.7852C16.8722 29.7852 16.856 29.7813 16.84 29.7745C16.8248 29.7677 16.8116 29.7581 16.7994 29.7464C16.788 29.7347 16.7786 29.7211 16.7729 29.7047C16.7671 29.6892 16.7634 29.6727 16.7634 29.6563ZM16.7946 29.6563C16.7946 29.6708 16.7974 29.6844 16.8022 29.6971C16.8079 29.7097 16.8144 29.7203 16.8239 29.729C16.8324 29.7377 16.8428 29.7445 16.8542 29.7503C16.8655 29.7552 16.8778 29.7581 16.8901 29.7581C16.9025 29.7581 16.9137 29.7562 16.9252 29.7513C16.9366 29.7464 16.9469 29.7396 16.9555 29.7309C16.9649 29.7222 16.9716 29.7115 16.9772 29.699C16.9829 29.6863 16.9857 29.6718 16.9857 29.6554C16.9857 29.6389 16.9829 29.6244 16.9762 29.6117C16.9705 29.5991 16.9621 29.5885 16.9536 29.5808C16.9441 29.5721 16.9337 29.5662 16.9224 29.5613C16.9111 29.5564 16.8997 29.5545 16.8893 29.5545C16.878 29.5545 16.8676 29.5564 16.8563 29.5613C16.8449 29.5662 16.8345 29.573 16.8251 29.5817C16.8156 29.5904 16.808 29.6011 16.8024 29.6147C16.7968 29.6283 16.7946 29.6399 16.7946 29.6563Z" fill="#F9B13D"/>
<path d="M17.0683 29.4423H17.0994V29.5741H17.1004C17.107 29.5644 17.1145 29.5556 17.123 29.5488C17.1316 29.542 17.1401 29.5371 17.1486 29.5333C17.1572 29.5294 17.1657 29.5265 17.1733 29.5256C17.1818 29.5246 17.1885 29.5236 17.195 29.5236C17.2149 29.5236 17.2329 29.5276 17.249 29.5343C17.2651 29.542 17.2792 29.5516 17.2896 29.5633C17.301 29.576 17.3095 29.5895 17.3162 29.605C17.3228 29.6205 17.3256 29.637 17.3256 29.6535C17.3256 29.6709 17.3228 29.6885 17.3162 29.7039C17.3095 29.7194 17.301 29.734 17.2896 29.7457C17.2783 29.7573 17.264 29.767 17.248 29.7738C17.2319 29.7806 17.2139 29.7844 17.195 29.7844C17.1883 29.7844 17.1818 29.7834 17.1733 29.7825C17.1648 29.7815 17.1572 29.7785 17.1477 29.7747C17.1392 29.7708 17.1306 29.766 17.1221 29.7592C17.1136 29.7524 17.106 29.7447 17.0994 29.734H17.0985V29.7776H17.0673V29.4421H17.0683V29.4423ZM17.2954 29.6556C17.2954 29.6401 17.2926 29.6255 17.2878 29.6129C17.282 29.6003 17.2755 29.5897 17.266 29.581C17.2566 29.5723 17.2462 29.5655 17.2339 29.5606C17.2216 29.5557 17.2093 29.5528 17.1961 29.5528C17.1819 29.5528 17.1695 29.5557 17.1573 29.5615C17.145 29.5674 17.1355 29.5742 17.1261 29.5838C17.1166 29.5935 17.1109 29.6042 17.1053 29.6168C17.1006 29.6295 17.0977 29.642 17.0977 29.6556C17.0977 29.6701 17.1005 29.6837 17.1053 29.6963C17.1101 29.7089 17.1176 29.7196 17.1261 29.7283C17.1346 29.737 17.145 29.7447 17.1573 29.7496C17.1695 29.7545 17.1819 29.7573 17.1942 29.7573C17.2094 29.7573 17.2226 29.7545 17.2348 29.7496C17.2471 29.7447 17.2575 29.737 17.266 29.7283C17.2746 29.7196 17.2812 29.7088 17.2859 29.6963C17.2926 29.6826 17.2954 29.6701 17.2954 29.6556Z" fill="#F9B13D"/>
<path d="M17.3689 29.4421H17.4V29.4993H17.3689V29.4421ZM17.3689 29.5303H17.4V29.7795H17.3689V29.5303Z" fill="#F9B13D"/>
<path d="M17.459 29.4421H17.4901V29.7795H17.459V29.4421Z" fill="#F9B13D"/>
<path d="M17.5485 29.4421H17.5796V29.4993H17.5485V29.4421ZM17.5485 29.5303H17.5796V29.7795H17.5485V29.5303Z" fill="#F9B13D"/>
<path d="M17.6651 29.5594H17.6142V29.5303H17.6651V29.4421H17.6962V29.5303H17.7547V29.5594H17.6962V29.7795H17.6651V29.5594Z" fill="#F9B13D"/>
<path d="M17.8598 29.7721L17.7651 29.5306H17.7982L17.8758 29.7294L17.9581 29.5306H17.9912L17.8502 29.8671H17.8181L17.8598 29.7721Z" fill="#F9B13D"/>
</svg>
